<?xml version="1.0"?>
<svg xmlns="http://www.w3.org/2000/svg" height="512px" viewBox="-18 0 484 484.064" width="512px" class=""><g><path d="m224.03125 484.0625-97.773438-52.636719c-77.789062-41.820312-126.2851558-123.015625-126.226562-211.328125v-170.210937h20.671875c68.09375-.082031 135.238281-15.9375 196.175781-46.320313l7.152344-3.566406 7.152344 3.566406c60.9375 30.382813 128.085937 46.238282 196.175781 46.320313h20.671875v170.210937c.0625 88.3125-48.4375 169.507813-126.222656 211.328125zm0 0" fill="#708299" data-original="#708299" class="" style="fill:#162D3F" data-old_color="#162d3f"/><path d="m32.03125 81.742188v138.355468c-.050781 76.53125 41.980469 146.898438 109.394531 183.132813l82.605469 44.480469 82.609375-44.480469c67.410156-36.234375 109.441406-106.601563 109.390625-183.132813v-138.355468c-66.523438-1.683594-131.945312-17.371094-192-46.046876-60.050781 28.675782-125.472656 44.363282-192 46.046876zm0 0" fill="#f2ecda" data-original="#F2ECDA" class="" style="fill:#6686FF" data-old_color="#6686ff"/><path d="m272.03125 296v-54.113281h-96v54.113281l-101.085938 50.542969c17.890626 23.394531 40.554688 42.714843 66.480469 56.6875l82.605469 44.480469 82.609375-44.480469c25.925781-13.972657 48.585937-33.292969 66.480469-56.6875zm0 0" fill="#ffccbc" data-original="#FFCCBC" class="" style="fill:#C3C5C8" data-old_color="#c3c5c8"/><path d="m280.65625 300.320312-8.625-4.320312v-54.113281h-96v54.113281l-8.640625 4.320312c32.28125 28.757813 80.988281 28.757813 113.265625 0zm0 0" fill="#ffab91" data-original="#FFAB91" class="" style="fill:#7C858C" data-old_color="#7c858c"/><path d="m224.03125 289.886719c-14.5.042969-28.414062-5.71875-38.640625-16l-17.933594-17.933594c-15.050781-14.976563-23.484375-35.347656-23.425781-56.578125v-37.488281c0-44.179688 35.816406-80 80-80s80 35.820312 80 80v37.488281c.0625 21.230469-8.375 41.601562-23.421875 56.578125l-17.953125 17.933594c-10.21875 10.285156-24.128906 16.046875-38.625 16zm0 0" fill="#ffccbc" data-original="#FFCCBC" class="" style="fill:#C3C5C8" data-old_color="#c3c5c8"/><g fill="#fff"><path d="m240.03125 129.886719h32v32h-32zm0 0" data-original="#000000" class="active-path" style="fill:#C3C5C8" data-old_color="#c3c5c8"/><path d="m240.03125 193.886719h32v32h-32zm0 0" data-original="#000000" class="active-path" style="fill:#C3C5C8" data-old_color="#c3c5c8"/></g></g> </svg>
