<svg width="2585" height="774" viewBox="0 0 2585 774" fill="none" xmlns="http://www.w3.org/2000/svg">
<path d="M650.779 429.659H648.49L642.872 420.557H642.81L642.849 421.065C642.922 422.034 642.958 422.919 642.958 423.721V429.659H641.263V418.237H643.529L649.13 427.292H649.177C649.167 427.172 649.146 426.737 649.115 425.987C649.083 425.232 649.068 424.643 649.068 424.221V418.237H650.779V429.659ZM659.693 429.659L659.435 428.526H659.341C659.086 428.927 658.721 429.242 658.247 429.471C657.779 429.7 657.242 429.815 656.638 429.815C655.591 429.815 654.81 429.555 654.294 429.034C653.779 428.513 653.521 427.724 653.521 426.667V421.018H655.372V426.346C655.372 427.008 655.508 427.505 655.779 427.838C656.049 428.167 656.474 428.331 657.052 428.331C657.823 428.331 658.388 428.101 658.747 427.643C659.112 427.18 659.294 426.406 659.294 425.323V421.018H661.138V429.659H659.693ZM656.2 419.963V419.768C656.497 419.403 656.802 418.997 657.115 418.549C657.432 418.101 657.682 417.719 657.865 417.401H659.997V417.565C659.726 417.883 659.32 418.294 658.779 418.799C658.242 419.299 657.789 419.687 657.419 419.963H656.2ZM671.036 429.659H669.193V424.331C669.193 423.669 669.068 423.177 668.818 422.854C668.568 422.526 668.177 422.362 667.646 422.362C666.937 422.362 666.417 422.594 666.083 423.057C665.755 423.515 665.591 424.281 665.591 425.354V429.659H663.755V421.018H665.193L665.45 422.151H665.544C665.784 421.739 666.13 421.422 666.583 421.198C667.042 420.974 667.544 420.862 668.091 420.862C669.419 420.862 670.299 421.315 670.732 422.221H670.857C671.112 421.794 671.471 421.461 671.935 421.221C672.398 420.982 672.93 420.862 673.529 420.862C674.56 420.862 675.31 421.122 675.779 421.643C676.253 422.164 676.49 422.958 676.49 424.026V429.659H674.654V424.331C674.654 423.669 674.526 423.177 674.271 422.854C674.021 422.526 673.63 422.362 673.099 422.362C672.385 422.362 671.862 422.586 671.529 423.034C671.2 423.476 671.036 424.159 671.036 425.081V429.659ZM682.825 429.815C681.482 429.815 680.43 429.424 679.669 428.643C678.914 427.857 678.536 426.776 678.536 425.401C678.536 423.989 678.888 422.88 679.591 422.073C680.294 421.265 681.26 420.862 682.49 420.862C683.63 420.862 684.531 421.208 685.193 421.901C685.854 422.594 686.185 423.547 686.185 424.76V425.752H680.427C680.453 426.591 680.68 427.237 681.107 427.69C681.534 428.138 682.135 428.362 682.911 428.362C683.422 428.362 683.896 428.315 684.333 428.221C684.776 428.122 685.25 427.961 685.755 427.737V429.229C685.307 429.443 684.854 429.594 684.396 429.682C683.937 429.771 683.414 429.815 682.825 429.815ZM682.49 422.252C681.906 422.252 681.437 422.437 681.083 422.807C680.734 423.177 680.526 423.716 680.458 424.424H684.38C684.37 423.711 684.198 423.172 683.865 422.807C683.531 422.437 683.073 422.252 682.49 422.252ZM692.654 420.862C693.023 420.862 693.328 420.888 693.568 420.94L693.388 422.651C693.128 422.588 692.857 422.557 692.575 422.557C691.841 422.557 691.245 422.797 690.786 423.276C690.333 423.755 690.107 424.377 690.107 425.143V429.659H688.271V421.018H689.708L689.95 422.542H690.044C690.331 422.026 690.703 421.617 691.161 421.315C691.625 421.013 692.122 420.862 692.654 420.862ZM702.841 425.323C702.841 426.734 702.479 427.836 701.755 428.627C701.031 429.419 700.023 429.815 698.732 429.815C697.924 429.815 697.211 429.633 696.591 429.268C695.971 428.903 695.495 428.38 695.161 427.698C694.828 427.015 694.661 426.224 694.661 425.323C694.661 423.922 695.021 422.828 695.74 422.042C696.458 421.255 697.471 420.862 698.779 420.862C700.029 420.862 701.018 421.265 701.747 422.073C702.476 422.875 702.841 423.958 702.841 425.323ZM696.552 425.323C696.552 427.318 697.289 428.315 698.763 428.315C700.221 428.315 700.95 427.318 700.95 425.323C700.95 423.349 700.216 422.362 698.747 422.362C697.976 422.362 697.417 422.617 697.068 423.127C696.724 423.638 696.552 424.37 696.552 425.323Z" fill="#46547C"/>
<path d="M549.755 340.659L849.755 520.659H249.755L549.755 340.659Z" fill="url(#paint0_linear)"/>
<path d="M549.755 700.659L249.755 520.659L849.755 520.659L549.755 700.659Z" fill="url(#paint1_linear)"/>
<path d="M849.755 520.659L549.755 340.659L948.755 95.6588L849.755 520.659Z" fill="url(#paint2_linear)"/>
<path d="M849.755 520.659L549.755 340.659L948.755 95.6588L849.755 520.659Z" fill="url(#paint3_linear)"/>
<path d="M849.755 520.659L549.755 700.659L719.755 442.659L849.755 520.659Z" fill="#150578" fill-opacity="0.4"/>
<path d="M849.755 520.659L719.755 442.659L948.755 95.6584L849.755 520.659Z" fill="#150578" fill-opacity="0.4"/>
<path d="M549.255 700.159L249.755 520.659L379.755 442.659L549.255 700.159Z" fill="url(#paint4_linear)" fill-opacity="0.5"/>
<path d="M549.755 340.659L249.755 520.659L150.755 95.6587L549.755 340.659Z" fill="url(#paint5_linear)"/>
<path d="M379.755 442.659L249.755 520.659L150.755 95.6585L379.755 442.659Z" fill="url(#paint6_linear)"/>
<path d="M1262.77 567.979C1273.17 567.979 1281.91 566.731 1288.98 564.235C1296.05 561.739 1301.67 558.411 1305.83 554.251C1310.13 550.091 1313.18 545.237 1314.98 539.691C1316.92 534.144 1317.89 528.251 1317.89 522.011C1317.89 515.493 1316.85 509.669 1314.77 504.539C1312.69 499.269 1309.43 494.832 1305 491.227C1300.56 487.483 1294.8 484.64 1287.73 482.699C1280.8 480.757 1272.41 479.787 1262.56 479.787H1206.2V567.979H1262.77ZM1206.2 354.155V441.099H1250.71C1269.84 441.099 1284.26 437.632 1293.97 430.699C1303.82 423.765 1308.74 412.741 1308.74 397.627C1308.74 381.957 1304.3 370.795 1295.43 364.139C1286.55 357.483 1272.69 354.155 1253.83 354.155H1206.2ZM1253.83 310.891C1273.52 310.891 1290.37 312.763 1304.37 316.507C1318.38 320.251 1329.82 325.589 1338.69 332.523C1347.7 339.456 1354.29 347.845 1358.45 357.691C1362.61 367.536 1364.69 378.629 1364.69 390.971C1364.69 398.043 1363.65 404.837 1361.57 411.355C1359.49 417.733 1356.23 423.765 1351.8 429.451C1347.5 434.997 1341.95 440.059 1335.16 444.635C1328.5 449.211 1320.53 453.093 1311.24 456.283C1352.56 465.573 1373.22 487.899 1373.22 523.259C1373.22 536.016 1370.79 547.803 1365.94 558.619C1361.09 569.435 1354.01 578.795 1344.72 586.699C1335.43 594.464 1323.99 600.565 1310.4 605.003C1296.81 609.44 1281.28 611.659 1263.81 611.659H1150.24V310.891H1253.83ZM1525.43 520.555C1510.59 521.248 1498.11 522.565 1487.99 524.507C1477.87 526.309 1469.75 528.667 1463.65 531.579C1457.55 534.491 1453.18 537.888 1450.55 541.771C1447.91 545.653 1446.6 549.883 1446.6 554.459C1446.6 563.472 1449.23 569.92 1454.5 573.803C1459.91 577.685 1466.91 579.627 1475.51 579.627C1486.05 579.627 1495.13 577.755 1502.76 574.011C1510.52 570.128 1518.08 564.304 1525.43 556.539V520.555ZM1407.7 427.995C1432.25 405.531 1461.78 394.299 1496.31 394.299C1508.79 394.299 1519.95 396.379 1529.8 400.539C1539.64 404.56 1547.96 410.245 1554.76 417.595C1561.55 424.805 1566.68 433.472 1570.15 443.595C1573.75 453.717 1575.56 464.811 1575.56 476.875V611.659H1552.26C1547.41 611.659 1543.66 610.965 1541.03 609.579C1538.39 608.053 1536.31 605.072 1534.79 600.635L1530.21 585.243C1524.81 590.096 1519.54 594.395 1514.41 598.139C1509.27 601.744 1503.94 604.795 1498.39 607.291C1492.84 609.787 1486.88 611.659 1480.5 612.907C1474.26 614.293 1467.33 614.987 1459.7 614.987C1450.69 614.987 1442.37 613.808 1434.74 611.451C1427.11 608.955 1420.53 605.28 1414.98 600.427C1409.43 595.573 1405.14 589.541 1402.09 582.331C1399.03 575.12 1397.51 566.731 1397.51 557.163C1397.51 551.755 1398.41 546.416 1400.21 541.147C1402.02 535.739 1404.93 530.608 1408.95 525.755C1413.11 520.901 1418.45 516.325 1424.97 512.027C1431.48 507.728 1439.46 503.984 1448.89 500.795C1458.45 497.605 1469.55 495.04 1482.17 493.099C1494.78 491.019 1509.21 489.771 1525.43 489.355V476.875C1525.43 462.592 1522.38 452.053 1516.28 445.259C1510.18 438.325 1501.37 434.859 1489.86 434.859C1481.54 434.859 1474.61 435.829 1469.06 437.771C1463.65 439.712 1458.87 441.931 1454.71 444.427C1450.55 446.784 1446.74 448.933 1443.27 450.875C1439.94 452.816 1436.2 453.787 1432.04 453.787C1428.43 453.787 1425.38 452.885 1422.89 451.083C1420.39 449.141 1418.38 446.923 1416.85 444.427L1407.7 427.995ZM1671.99 424.459C1676.29 420.16 1680.8 416.208 1685.51 412.603C1690.36 408.859 1695.43 405.739 1700.7 403.243C1706.1 400.608 1711.86 398.597 1717.96 397.211C1724.06 395.685 1730.72 394.923 1737.93 394.923C1749.58 394.923 1759.91 396.933 1768.92 400.955C1777.93 404.837 1785.42 410.384 1791.38 417.595C1797.48 424.667 1802.06 433.195 1805.11 443.179C1808.3 453.024 1809.9 463.909 1809.9 475.835V611.659H1758.52V475.835C1758.52 462.8 1755.54 452.747 1749.58 445.675C1743.61 438.464 1734.53 434.859 1722.33 434.859C1713.45 434.859 1705.13 436.869 1697.37 440.891C1689.6 444.912 1682.25 450.389 1675.32 457.323V611.659H1623.94V398.251H1655.35C1662.01 398.251 1666.38 401.371 1668.46 407.611L1671.99 424.459ZM1870.08 611.659V436.939L1851.56 434.027C1847.54 433.195 1844.28 431.808 1841.79 429.867C1839.43 427.787 1838.25 424.875 1838.25 421.131V400.123H1870.08V384.315C1870.08 372.112 1871.88 361.157 1875.48 351.451C1879.23 341.744 1884.5 333.493 1891.29 326.699C1898.23 319.904 1906.61 314.704 1916.46 311.099C1926.31 307.493 1937.4 305.691 1949.74 305.691C1959.59 305.691 1968.74 307.008 1977.2 309.643L1976.16 335.435C1976.02 337.376 1975.46 338.971 1974.49 340.219C1973.52 341.328 1972.2 342.229 1970.54 342.923C1969.01 343.477 1967.21 343.893 1965.13 344.171C1963.05 344.309 1960.83 344.379 1958.48 344.379C1952.37 344.379 1946.9 345.072 1942.04 346.459C1937.33 347.707 1933.31 349.995 1929.98 353.323C1926.65 356.512 1924.09 360.811 1922.28 366.219C1920.62 371.488 1919.79 378.075 1919.79 385.979V400.123H1975.32V436.731H1921.45V611.659H1870.08ZM2092.94 394.923C2108.75 394.923 2123.1 397.488 2135.99 402.619C2149.03 407.749 2160.12 415.029 2169.27 424.459C2178.56 433.888 2185.71 445.397 2190.7 458.987C2195.69 472.576 2198.19 487.76 2198.19 504.539C2198.19 521.456 2195.69 536.709 2190.7 550.299C2185.71 563.888 2178.56 575.467 2169.27 585.035C2160.12 594.603 2149.03 601.952 2135.99 607.083C2123.1 612.213 2108.75 614.779 2092.94 614.779C2076.99 614.779 2062.5 612.213 2049.47 607.083C2036.43 601.952 2025.27 594.603 2015.98 585.035C2006.83 575.467 1999.68 563.888 1994.55 550.299C1989.56 536.709 1987.07 521.456 1987.07 504.539C1987.07 487.76 1989.56 472.576 1994.55 458.987C1999.68 445.397 2006.83 433.888 2015.98 424.459C2025.27 415.029 2036.43 407.749 2049.47 402.619C2062.5 397.488 2076.99 394.923 2092.94 394.923ZM2092.94 575.259C2110.69 575.259 2123.79 569.296 2132.25 557.371C2140.85 545.445 2145.15 527.973 2145.15 504.955C2145.15 481.936 2140.85 464.395 2132.25 452.331C2123.79 440.267 2110.69 434.235 2092.94 434.235C2074.91 434.235 2061.53 440.336 2052.79 452.539C2044.2 464.603 2039.9 482.075 2039.9 504.955C2039.9 527.835 2044.2 545.307 2052.79 557.371C2061.53 569.296 2074.91 575.259 2092.94 575.259ZM2418.16 611.659H2368.66C2364.91 611.659 2361.86 610.688 2359.5 608.747C2357.28 606.805 2355.41 604.587 2353.89 602.091L2308.75 527.835C2308.06 530.192 2307.23 532.411 2306.26 534.491C2305.42 536.571 2304.45 538.512 2303.34 540.315L2263.41 602.091C2261.88 604.448 2260.01 606.667 2257.79 608.747C2255.57 610.688 2252.8 611.659 2249.47 611.659H2203.5L2276.72 501.627L2206.42 398.251H2255.92C2259.66 398.251 2262.44 398.805 2264.24 399.915C2266.04 400.885 2267.64 402.549 2269.02 404.907L2313.74 476.043C2315.27 471.328 2317.42 466.683 2320.19 462.107L2356.18 405.947C2359.23 400.816 2363.18 398.251 2368.03 398.251H2415.25L2345.15 499.339L2418.16 611.659Z" fill="#252020"/>
<defs>
<linearGradient id="paint0_linear" x1="549.755" y1="340.659" x2="549.755" y2="520.659" gradientUnits="userSpaceOnUse">
<stop stop-color="#66B3FF"/>
<stop offset="1" stop-color="#6686FF"/>
</linearGradient>
<linearGradient id="paint1_linear" x1="549.755" y1="700.659" x2="549.755" y2="520.659" gradientUnits="userSpaceOnUse">
<stop stop-color="#4F69C8"/>
<stop offset="1" stop-color="#6686FF"/>
</linearGradient>
<linearGradient id="paint2_linear" x1="910.755" y1="438.659" x2="332.755" y2="-7.84131" gradientUnits="userSpaceOnUse">
<stop stop-color="#150578"/>
<stop offset="1" stop-color="#150578" stop-opacity="0"/>
</linearGradient>
<linearGradient id="paint3_linear" x1="647.755" y1="454.659" x2="973.255" y2="62.6587" gradientUnits="userSpaceOnUse">
<stop offset="0.116831" stop-opacity="0.25"/>
<stop offset="1" stop-color="white" stop-opacity="0"/>
</linearGradient>
<linearGradient id="paint4_linear" x1="518.577" y1="725.773" x2="307.242" y2="472.66" gradientUnits="userSpaceOnUse">
<stop stop-color="#66B3FF"/>
<stop offset="1" stop-color="#A0DDFF" stop-opacity="0.7"/>
</linearGradient>
<linearGradient id="paint5_linear" x1="255.755" y1="186.659" x2="510.755" y2="489.159" gradientUnits="userSpaceOnUse">
<stop stop-color="#6686FF" stop-opacity="0.85"/>
<stop offset="1" stop-color="#306BAC"/>
</linearGradient>
<linearGradient id="paint6_linear" x1="178.255" y1="582.659" x2="179.755" y2="237.159" gradientUnits="userSpaceOnUse">
<stop stop-color="#3C8ACD"/>
<stop offset="1" stop-color="#6686FF"/>
</linearGradient>
</defs>
</svg>
