<svg height="512pt" viewBox="0 -76 512 512" width="512pt" xmlns="http://www.w3.org/2000/svg"><path d="m467 360h-422c-24.8125 0-45-20.1875-45-45v-270c0-24.8125 20.1875-45 45-45h422c24.8125 0 45 20.1875 45 45v270c0 24.8125-20.1875 45-45 45zm0 0" fill="#d7f0f5"/><path d="m467 0h-211v360h211c24.8125 0 45-20.1875 45-45v-270c0-24.8125-20.1875-45-45-45zm0 0" fill="#c3e1eb"/><path d="m215 275h-140c-8.285156 0-15-6.714844-15-15v-10c0-46.867188 38.132812-85 85-85s85 38.132812 85 85v10c0 8.285156-6.714844 15-15 15zm0 0" fill="#0093ff"/><path d="m145 165v110h70c8.285156 0 15-6.714844 15-15v-10c0-46.867188-38.132812-85-85-85zm0 0" fill="#007def"/><path d="m145 195c-30.328125 0-55-24.671875-55-55s24.671875-55 55-55 55 24.671875 55 55-24.671875 55-55 55zm0 0" fill="#ffbeaa"/><path d="m145 85v110c30.328125 0 55-24.671875 55-55s-24.671875-55-55-55zm0 0" fill="#faa68f"/><g fill="#47435c"><path d="m437 255h-160c-8.285156 0-15-6.714844-15-15s6.714844-15 15-15h160c8.285156 0 15 6.714844 15 15s-6.714844 15-15 15zm0 0"/><path d="m437 195h-160c-8.285156 0-15-6.714844-15-15s6.714844-15 15-15h160c8.285156 0 15 6.714844 15 15s-6.714844 15-15 15zm0 0"/><path d="m337 135h-60c-8.285156 0-15-6.714844-15-15s6.714844-15 15-15h60c8.285156 0 15 6.714844 15 15s-6.714844 15-15 15zm0 0"/></g></svg>