<svg height="464pt" viewBox="-40 0 464 464" width="464pt" xmlns="http://www.w3.org/2000/svg"><path d="m24 32h336c13.253906 0 24 10.746094 24 24v144c0 13.253906-10.746094 24-24 24h-336c-13.253906 0-24-10.746094-24-24v-144c0-13.253906 10.746094-24 24-24zm0 0" fill="#348fd9"/><path d="m120 0h144v32h-144zm0 0" fill="#3d4d63"/><path d="m120 224h144v32h-144zm0 0" fill="#3d4d63"/><path d="m192 40c-39.765625 0-72 32.234375-72 72v37.527344c-.519531 38.546875 28.796875 70.964844 67.199219 74.3125 19.886719 1.328125 39.433593-5.644532 53.984375-19.257813 14.554687-13.613281 22.816406-32.652343 22.816406-52.582031v-40c0-39.765625-32.234375-72-72-72zm0 0" fill="#fec9a3"/><path d="m192 40c-5.386719.015625-10.753906.632812-16 1.847656 32.742188 7.464844 55.976562 36.570313 56 70.152344v40c-.027344 33.542969-23.214844 62.625-55.910156 70.121094 3.648437.878906 7.363281 1.457031 11.109375 1.71875 19.886719 1.328125 39.433593-5.644532 53.984375-19.257813 14.554687-13.613281 22.816406-32.652343 22.816406-52.582031v-40c0-39.765625-32.234375-72-72-72zm0 0" fill="#fec093"/><path d="m160 152c-8.835938 0-16-7.164062-16-16s7.164062-16 16-16 16 7.164062 16 16-7.164062 16-16 16zm0-16" fill="#7a432a"/><path d="m224 152c-8.835938 0-16-7.164062-16-16s7.164062-16 16-16 16 7.164062 16 16-7.164062 16-16 16zm0-16" fill="#7a432a"/><path d="m192 192c-12.851562.046875-24.605469-7.222656-30.3125-18.734375l-.847656-1.691406 14.320312-7.148438.839844 1.6875c3.03125 6.058594 9.222656 9.886719 16 9.886719s12.96875-3.828125 16-9.886719l.800781-1.6875 14.320313 7.148438-.847656 1.691406c-5.699219 11.5-17.4375 18.765625-30.273438 18.734375zm0 0" fill="#f7a468"/><path d="m120 112h-8c-13.253906 0-24 10.746094-24 24s10.746094 24 24 24h8.472656c-.308594-2.65625-.464844-5.328125-.472656-8zm0 0" fill="#fec093"/><path d="m272 112h-8v40c-.007812 2.671875-.164062 5.34375-.472656 8h8.472656c13.253906 0 24-10.746094 24-24s-10.746094-24-24-24zm0 0" fill="#fec093"/><path d="m120 112h20.800781c31.085938.519531 61.070313-11.496094 83.199219-33.335938l40 33.335938v-20c0-33.136719-32.230469-60-72-60s-72 26.863281-72 60zm0 0" fill="#7a432a"/><path d="m32 160-32 8v-80l32 8zm0 0" fill="#3d4d63"/><path d="m352 136c0 8.835938-7.164062 16-16 16s-16-7.164062-16-16 7.164062-16 16-16 16 7.164062 16 16zm0 0" fill="#f35244"/><path d="m216 464h-48v-208h48zm0 0" fill="#374559"/><g fill="#fec9a3"><path d="m168 464h-32c-8.835938 0-16-7.164062-16-16s7.164062-16 16-16h32c8.835938 0 16 7.164062 16 16s-7.164062 16-16 16zm0 0"/><path d="m168 432h-32c-8.835938 0-16-7.164062-16-16s7.164062-16 16-16h32c8.835938 0 16 7.164062 16 16s-7.164062 16-16 16zm0 0"/><path d="m168 400h-32c-8.835938 0-16-7.164062-16-16s7.164062-16 16-16h32c8.835938 0 16 7.164062 16 16s-7.164062 16-16 16zm0 0"/><path d="m168 368h-32c-8.835938 0-16-7.164062-16-16s7.164062-16 16-16h32c8.835938 0 16 7.164062 16 16s-7.164062 16-16 16zm0 0"/><path d="m152 288 120 48v128h-56v-104l-48-24c-17.671875-8.835938-24.835938-30.328125-16-48zm0 0"/></g><path d="m360 32h-40l-56.230469 56.230469c.09375 1.25.230469 2.496093.230469 3.769531v20h8c13.253906 0 24 10.746094 24 24s-10.746094 24-24 24h-8.457031c-4.277344 38.273438-37.917969 66.402344-76.34375 63.839844-15.417969-1.027344-30.058594-7.164063-41.597657-17.441406l-17.601562 17.601562h232c13.253906 0 24-10.746094 24-24v-144c0-13.253906-10.746094-24-24-24zm-24 120c-8.835938 0-16-7.164062-16-16s7.164062-16 16-16 16 7.164062 16 16-7.164062 16-16 16zm0 0" fill="#3086cd"/><path d="m230.558594 121.441406c6.527344 2.898438 10.339844 9.773438 9.347656 16.84375-.992188 7.070313-6.550781 12.628906-13.621094 13.621094-7.070312.992188-13.945312-2.820312-16.84375-9.347656l-29 29c4.125 3.660156 9.722656 5.179687 15.128906 4.109375 5.410157-1.070313 10.007813-4.605469 12.429688-9.554688l.800781-1.6875 14.320313 7.148438-.847656 1.691406c-4.753907 9.535156-13.726563 16.277344-24.210938 18.1875-10.488281 1.90625-21.257812-1.234375-29.070312-8.484375l-23.390626 23.429688c11.539063 10.285156 26.175782 16.433593 41.597657 17.464843 38.433593 2.5625 72.078125-25.582031 76.34375-63.863281.300781-2.65625.453125-5.328125.457031-8v-40l-13.089844-10.910156zm0 0" fill="#fec093"/><path d="m224 152c7.515625-.035156 13.992188-5.292969 15.570312-12.640625 1.578126-7.347656-2.171874-14.804687-9.011718-17.917969l-21.117188 21.117188c2.574219 5.734375 8.273438 9.429687 14.558594 9.441406zm0-16" fill="#662e13"/><path d="m192 192c12.851562.046875 24.605469-7.222656 30.3125-18.734375l.847656-1.691406-14.320312-7.148438-.800782 1.6875c-2.421874 4.949219-7.019531 8.484375-12.429687 9.554688-5.40625 1.070312-11.003906-.449219-15.128906-4.109375l-11.410157 11.410156c6.230469 5.796875 14.421876 9.023438 22.929688 9.03125zm0 0" fill="#f7a468"/><path d="m263.769531 88.230469-12.859375 12.859375 13.089844 10.910156v-20c0-1.273438-.136719-2.519531-.230469-3.769531zm0 0" fill="#662e13"/><path d="m263.542969 160h8.457031c13.253906 0 24-10.746094 24-24s-10.746094-24-24-24h-8v40c-.007812 2.671875-.160156 5.34375-.457031 8zm0 0" fill="#fec093"/><path d="m352 136c0 8.835938-7.164062 16-16 16s-16-7.164062-16-16 7.164062-16 16-16 16 7.164062 16 16zm0 0" fill="#f35244"/><path d="m168 256h48v24h-48zm0 0" fill="#2e3e51"/></svg>