<?xml version="1.0"?>
<svg xmlns="http://www.w3.org/2000/svg" height="512px" viewBox="0 0 512 512" width="512px" class=""><g><path d="m61.78125 233.136719c.015625 17.496093 14.195312 31.675781 31.691406 31.691406h386.824219c17.496094-.015625 31.679687-14.195313 31.691406-31.691406v-201.445313c-.011719-17.496094-14.195312-31.675781-31.691406-31.691406h-386.824219c-17.496094.015625-31.675781 14.195312-31.691406 31.691406zm0 0" fill="#35495e" data-original="#35495E"/><path d="m511.988281 31.691406v21.273438c-.027343 9.738281-7.914062 17.625-17.652343 17.65625-9.722657.070312-17.585938 7.933594-17.65625 17.65625v88.273437c.027343 9.738281 7.914062 17.628907 17.65625 17.65625 9.71875.070313 17.582031 7.933594 17.652343 17.65625v21.273438c-.011719 17.496093-14.195312 31.675781-31.691406 31.691406h-356.722656v-264.828125h356.722656c17.496094.015625 31.679687 14.195312 31.691406 31.691406zm0 0" fill="#90bae1" data-original="#90BAE1"/><path d="m504.398438 11.121094c-40.429688 12.976562-234.550782 81.65625-380.824219 253.089844v-264.210938h356.722656c9.273437.00390625 18.082031 4.070312 24.101563 11.121094zm0 0" fill="#b0d3f0" data-original="#B0D3F0"/><path d="m220.679688 252.964844v9.707031c0 .582031.234374 1.140625.648437 1.546875s.976563.628906 1.558594.617188h189.792969c.582031.011718 1.140624-.210938 1.558593-.617188.414063-.40625.648438-.964844.648438-1.546875v-9.707031c-.050781-14.179688-7.835938-27.199219-20.304688-33.953125l-43.609375-24.082031c-4.136718-2.257813-6.710937-6.601563-6.707031-11.316407v-12.359375c.007813-1.085937.433594-2.125 1.191406-2.902344 8.707031-9.957031 15.753907-21.246093 20.878907-33.441406l1.765624-1.765625c1.679688-1.613281 2.636719-3.84375 2.644532-6.175781v-18.777344c-.003906-2.335937-.960938-4.566406-2.644532-6.179687l-1.765624-1.765625v-34.621094c-4.414063-30.316406-48.554688-30.316406-48.554688-30.316406s-44.136719 0-48.550781 30.316406v34.640625l-1.765625 1.761719c-1.683594 1.617187-2.640625 3.847656-2.648438 6.179687v18.796875c.011719 2.332032.964844 4.5625 2.648438 6.179688l1.765625 1.765625c5.125 12.1875 12.171875 23.476562 20.878906 33.429687.75.769532 1.175781 1.800782 1.191406 2.875v12.359375c-.011719 4.71875-2.601562 9.054688-6.753906 11.300781l-43.5625 24.097657c-12.46875 6.753906-20.253906 19.773437-20.304687 33.953125zm0 0" fill="#285680" data-original="#285680"/><path d="m176.542969 494.34375v8.828125c0 4.875-3.953125 8.828125-8.828125 8.828125h-114.761719c-4.875 0-8.824219-3.953125-8.824219-8.828125v-48.242187c.058594-5.550782-.554687-11.09375-1.820312-16.5-1.589844-6.433594-2.59375-12.824219-4.191406-19.085938l-33.714844-132.113281c-3.867188-9.882813-5.21875-20.570313-3.925782-31.105469 9.222657-71.523438 61.304688-165.253906 61.304688-165.253906v176.550781c-.1875 8.769531 3.207031 17.234375 9.40625 23.4375 6.195312 6.203125 14.65625 9.609375 23.425781 9.429687 16.265625-1.050781 28.929688-14.535156 28.960938-30.835937v-116.628906c.03125-16.300781 12.699219-29.785157 28.964843-30.835938 8.769532-.175781 17.230469 3.230469 23.425782 9.4375 6.195312 6.203125 9.59375 14.667969 9.402344 23.4375v111.730469s23.835937 82.882812-.695313 155.019531l-.414063.953125c-3.371093 7.675782-5.710937 15.761719-6.964843 24.046875-.328125 2.414063-.488281 4.847657-.476563 7.285157zm0 0" fill="#af8066" data-original="#AF8066" class="active-path" style="fill:#F9B68E" data-old_color="#F9B68F"/></g> </svg>
